<?xml version="1.0" encoding="UTF-8"?>
<svg version="1.1" xmlns="http://www.w3.org/2000/svg" width="314" height="152">
<path d="M0 0 C103.62 0 207.24 0 314 0 C314 50.16 314 100.32 314 152 C210.38 152 106.76 152 0 152 C0 101.84 0 51.68 0 0 Z " fill="#FBFBFB" transform="translate(0,0)"/>
<path d="M0 0 C1.65649414 1.34765625 1.65649414 1.34765625 3.28515625 3.0625 C3.89286865 3.69027344 4.50058105 4.31804688 5.12670898 4.96484375 C5.76552002 5.63644531 6.40433105 6.30804688 7.0625 7 C13.07164721 13.17175367 19.22707221 18.67225107 26 24 C27.57369639 25.27800184 29.13724301 26.56866456 30.6875 27.875 C31.33074219 28.40867187 31.97398438 28.94234375 32.63671875 29.4921875 C34 31 34 31 34 34 C33.08476563 34.34933594 32.16953125 34.69867188 31.2265625 35.05859375 C30.03804688 35.51363281 28.84953125 35.96867187 27.625 36.4375 C26.44164063 36.88996094 25.25828125 37.34242187 24.0390625 37.80859375 C21.13963807 38.89271912 21.13963807 38.89271912 19 40 C17.45976004 40.06950541 15.91665012 40.08452357 14.375 40.0625 C13.14910156 40.04896484 13.14910156 40.04896484 11.8984375 40.03515625 C11.27195312 40.02355469 10.64546875 40.01195312 10 40 C10 40.66 10 41.32 10 42 C10.66 42.33 11.32 42.66 12 43 C10.80503906 44.03447266 10.80503906 44.03447266 9.5859375 45.08984375 C8.51343022 46.03658195 7.44327522 46.98598902 6.375 47.9375 C5.818125 48.43241943 5.26125 48.92733887 4.6875 49.43725586 C1.4354876 52.41492743 -0.89205729 55.14044901 -3 59.0625 C-4.80240344 62.12112401 -5.58670788 62.8633039 -9.0234375 64 C-12.02973248 64.504553 -14.95701295 64.84735825 -18 65 C-17.61913138 63.6623151 -17.21916026 62.33007114 -16.8125 61 C-16.48185547 59.88625 -16.48185547 59.88625 -16.14453125 58.75 C-14.53617076 54.8855434 -12.28682258 51.49500639 -10 48 C-13.99963002 47.35186176 -17.99976736 46.7069076 -22 46.0625 C-23.12535156 45.88009766 -24.25070313 45.69769531 -25.41015625 45.50976562 C-31.26474073 44.56823888 -37.10979193 43.68574726 -43 43 C-47.72328464 60.29059557 -48.5392039 79.24053196 -41.99609375 96.0859375 C-41 99 -41 99 -42 102 C-49.96210478 90.31789544 -53.39392545 78.50356401 -53.375 64.4375 C-53.37556396 63.38280518 -53.37612793 62.32811035 -53.37670898 61.24145508 C-53.25580924 52.59679282 -51.89863987 45.13714565 -49 37 C-48.67 36.01 -48.34 35.02 -48 34 C-41.4 34.33 -34.8 34.66 -28 35 C-28 34.34 -28 33.68 -28 33 C-28.99 33 -29.98 33 -31 33 C-29.0830183 19.93179546 -15.79521962 7.53540692 -5.75390625 -0.20703125 C-3.39676433 -1.27273239 -2.41446138 -0.85366849 0 0 Z " fill="#F1F2F4" transform="translate(59,4)"/>
<path d="M0 0 C84.81 0 169.62 0 257 0 C257 3.3 257 6.6 257 10 C172.19 10 87.38 10 0 10 C0 6.7 0 3.4 0 0 Z " fill="#0C3B61" transform="translate(53,140)"/>
<path d="M0 0 C-0.45890625 0.54527344 -0.9178125 1.09054688 -1.390625 1.65234375 C-10.23237462 12.51877974 -13.00410492 22.0285973 -12 36 C-9.8525214 47.56533657 -4.556894 55.51837575 4.51953125 62.80859375 C6 64 6 64 8 66 C0.61675029 65.8106859 -4.14874596 60.76438788 -9.1796875 55.88671875 C-18.75568562 45.71447924 -22.24360748 35.13144687 -22.16796875 21.3046875 C-22.0212266 18.41762095 -21.66202972 15.80700602 -21 13 C-21.72445312 13.26554687 -22.44890625 13.53109375 -23.1953125 13.8046875 C-25.19399295 14.53487209 -27.1940579 15.26127537 -29.1953125 15.984375 C-31.13436612 16.68653926 -33.06903506 17.40088815 -35 18.125 C-41.51807988 20.02610663 -48.31092265 20.88843274 -55 22 C-54.67779637 39.10608375 -49.75239023 54.34685141 -37.5625 66.6875 C-36.38505675 67.8023846 -35.20138259 68.91095448 -34 70 C-34.99 70.495 -34.99 70.495 -36 71 C-49.62637193 60.691115 -58.80612145 49.17279723 -62.578125 32.17578125 C-63.38200303 26.12436611 -63.22472265 20.09248067 -63 14 C-46.04714153 9.13710522 -46.04714153 9.13710522 -38.25 7.5625 C-30.94920611 6.0800618 -23.80645147 4.08825565 -16.63769531 2.06860352 C-4.21615735 -1.40538578 -4.21615735 -1.40538578 0 0 Z " fill="#132E52" transform="translate(86,63)"/>
<path d="M0 0 C-0.60672536 9.22561834 -1.56955733 18.37396681 -2.72949219 27.54272461 C-3.00441991 29.72254411 -3.27195756 31.90319393 -3.5390625 34.08398438 C-3.71310538 35.47661709 -3.88756821 36.86919741 -4.0625 38.26171875 C-4.29646484 40.13283325 -4.29646484 40.13283325 -4.53515625 42.04174805 C-5 45 -5 45 -6 47 C-11.0383084 46.10097099 -15.78839009 44.51498556 -20.6484375 42.9375 C-37.0323 38.3546014 -54.18496345 40.6350171 -70 46 C-62.29474754 37.35910975 -48.15836317 34.9554962 -37 34 C-29.00192494 33.68564843 -20.99985817 33.80461268 -13 34 C-12.95101562 33.15179688 -12.90203125 32.30359375 -12.8515625 31.4296875 C-12.30522568 22.85785119 -11.32870616 14.48823932 -10 6 C-10.67804688 5.87882813 -11.35609375 5.75765625 -12.0546875 5.6328125 C-12.98539063 5.46523437 -13.91609375 5.29765625 -14.875 5.125 C-15.88820312 4.94453125 -16.90140625 4.7640625 -17.9453125 4.578125 C-19.78103639 4.230699 -21.61211999 3.85435087 -23.4296875 3.421875 C-37.4170796 0.12518326 -51.1125659 2.4886018 -65 5 C-62.18961273 1.97968019 -59.56757444 0.83394379 -55.6875 -0.625 C-54.02267578 -1.26308594 -54.02267578 -1.26308594 -52.32421875 -1.9140625 C-36.28087684 -7.15501321 -15.78668908 -5.41534204 0 0 Z " fill="#1B3557" transform="translate(151,8)"/>
<path d="M0 0 C2.0836309 0.14151828 4.16689938 0.28837936 6.25 0.4375 C7.99023438 0.55931641 7.99023438 0.55931641 9.765625 0.68359375 C13 1 13 1 14.95483398 1.49511719 C18.50581756 2.37173579 22.17550788 2.49964806 25.8125 2.8125 C37.32607466 3.86916638 48.64201171 5.87617366 60 8 C57.58388029 10.42890341 55.16195981 12.84541442 52.68359375 15.2109375 C47.61333875 19.98542967 47.61333875 19.98542967 44.1875 25.9375 C41.47334217 29.73732097 40.23559752 29.683794 35.75 30.4375 C33.83649908 30.65494329 31.92012573 30.85206578 30 31 C30.38086862 29.6623151 30.78083974 28.33007114 31.1875 27 C31.51814453 25.88625 31.51814453 25.88625 31.85546875 24.75 C33.46382924 20.8855434 35.71317742 17.49500639 38 14 C34.00036998 13.35186176 30.00023264 12.7069076 26 12.0625 C24.87464844 11.88009766 23.74929687 11.69769531 22.58984375 11.50976562 C16.73525927 10.56823888 10.89020807 9.68574726 5 9 C0.27671536 26.29059557 -0.5392039 45.24053196 6.00390625 62.0859375 C7 65 7 65 6 68 C-1.96210478 56.31789544 -5.39392545 44.50356401 -5.375 30.4375 C-5.37556396 29.38280518 -5.37612793 28.32811035 -5.37670898 27.24145508 C-5.25580924 18.59679282 -3.89863987 11.13714565 -1 3 C-0.67 2.01 -0.34 1.02 0 0 Z " fill="#122D51" transform="translate(11,38)"/>
<path d="M0 0 C1.98 0 3.96 0 6 0 C6 1.65 6 3.3 6 5 C7.3303125 5.12375 7.3303125 5.12375 8.6875 5.25 C12.41255464 6.0934086 14.20928838 7.45552764 17 10 C15.63016497 13.16115776 15.0109362 13.9927092 12 16 C10.02 14.68 8.04 13.36 6 12 C6.33 15.63 6.66 19.26 7 23 C8.0725 23.4125 9.145 23.825 10.25 24.25 C14.2265466 25.94848448 17.03001356 28.06002711 19 32 C19.44101825 36.85120078 18.6411172 39.90171469 16 44 C12.7943528 46.44641497 9.97236879 47.43251874 6 48 C6 49.98 6 51.96 6 54 C4.02 54 2.04 54 0 54 C0 52.02 0 50.04 0 48 C-1.010625 47.95875 -2.02125 47.9175 -3.0625 47.875 C-7.85902082 47.23872683 -10.67514558 44.30464254 -14 41 C-11.525 38.525 -11.525 38.525 -9 36 C-8.071875 36.639375 -7.14375 37.27875 -6.1875 37.9375 C-3.15780057 40.08622093 -3.15780057 40.08622093 0 41 C0 37.04 0 33.08 0 29 C-1.65 28.67 -3.3 28.34 -5 28 C-7.86577528 26.1803595 -10.46360575 24.07278849 -12 21 C-12.64256398 16.41025729 -12.77900671 12.33836316 -9.9375 8.5 C-6.51931623 5.59090743 -4.42618358 5.17357583 0 5 C0 3.35 0 1.7 0 0 Z " fill="#D28017" transform="translate(103,57)"/>
<path d="M0 0 C1.65649414 1.34765625 1.65649414 1.34765625 3.28515625 3.0625 C3.89286865 3.69027344 4.50058105 4.31804688 5.12670898 4.96484375 C5.76552002 5.63644531 6.40433105 6.30804688 7.0625 7 C13.07164721 13.17175367 19.22707221 18.67225107 26 24 C27.57369639 25.27800184 29.13724301 26.56866456 30.6875 27.875 C31.33074219 28.40867187 31.97398438 28.94234375 32.63671875 29.4921875 C34 31 34 31 34 34 C24.7602554 38.29755563 17.16547249 39.68582648 7 39 C8.23263349 35.30209954 9.20052451 35.0645154 12.5625 33.3125 C13.38878906 32.87550781 14.21507812 32.43851563 15.06640625 31.98828125 C16.02353516 31.49908203 16.02353516 31.49908203 17 31 C17 30.34 17 29.68 17 29 C15.61707981 27.60177029 15.61707981 27.60177029 13.75 26.125 C7.82166218 21.10297282 2.44825893 15.52998282 -3 10 C-10.8185863 14.87096788 -17.30062932 21.53837929 -21.6875 29.6875 C-22.7734375 31.60546875 -22.7734375 31.60546875 -24 33 C-27.8125 33.5 -27.8125 33.5 -31 33 C-29.0830183 19.93179546 -15.79521962 7.53540692 -5.75390625 -0.20703125 C-3.39676433 -1.27273239 -2.41446138 -0.85366849 0 0 Z " fill="#153053" transform="translate(59,4)"/>
<path d="M0 0 C1.9375 1.1875 1.9375 1.1875 3 3 C3.1875 5.6875 3.1875 5.6875 3 8 C3.99 8 4.98 8 6 8 C6.20625 7.4225 6.4125 6.845 6.625 6.25 C8.58448602 3.04356833 10.69125885 1.74801419 14 0 C17.75 -0.4375 17.75 -0.4375 21 0 C23.14762184 3.22143276 23.561068 4.2595467 23 8 C21 9.8125 21 9.8125 19 11 C18.505 7.535 18.505 7.535 18 4 C14.45486619 3.67395005 14.45486619 3.67395005 11.3515625 5.16796875 C9.49788728 7.68060943 9.63345317 9.4068586 9.6875 12.5 C9.69330078 13.93859375 9.69330078 13.93859375 9.69921875 15.40625 C9.82782252 18.2348262 9.82782252 18.2348262 12 21 C15.53672026 21.30754089 18.61045199 21.04293785 22 20 C21 23 21 23 18.375 24.75 C14.34781638 26.24154949 12.10850119 26.18514458 8 25 C6.8125 23 6.8125 23 6 21 C3.94999129 20.19471111 3.94999129 20.19471111 2 20 C2 20.66 2 21.32 2 22 C-1.98875375 24.41397305 -5.02106078 25.96736869 -9.75 26.125 C-13 25 -13 25 -15.4375 22.5 C-17.39550584 18.11406692 -17.83152715 14.72612877 -17 10 C-13.44637287 2.75606778 -8.18127471 -1.08054572 0 0 Z " fill="#F3F5F7" transform="translate(257,67)"/>
<path d="M0 0 C3.36735065 2.75444957 6.58812062 6.48701439 7.30859375 10.8828125 C7.63344508 16.53325686 6.59066134 20.15465917 2.9140625 24.51953125 C0.01162208 26.76448006 -2.3042533 26.87265262 -5.88671875 26.5234375 C-10.36671725 25.41378907 -12.34996687 22.98625716 -14.8125 19.25 C-16.22775735 15.3766641 -16.98339264 12.02648954 -16 8 C-12.13880159 1.85986796 -7.58502447 -1.7731226 0 0 Z " fill="#2C5474" transform="translate(298,67)"/>
<path d="M0 0 C2.99993115 2.54994148 3.85480459 4.12882756 4.5 8 C3.88059469 11.71643187 2.60468873 13.32089159 0 16 C-3.4352048 18.29013653 -4.985331 18.17842973 -9 18 C-9 20.31 -9 22.62 -9 25 C-10.65 25.33 -12.3 25.66 -14 26 C-14 19.73 -14 13.46 -14 7 C-14.66 7 -15.32 7 -16 7 C-14.80532145 3.41596435 -13.30942998 2.54080851 -10.0390625 0.8046875 C-6.384835 -0.63740228 -3.91331457 -0.57737428 0 0 Z " fill="#7891A6" transform="translate(162,67)"/>
<path d="M0 0 C0.99 0 1.98 0 3 0 C3 0.99 3 1.98 3 3 C5.3260857 3.38063221 7.66055264 3.71269945 10 4 C10.33 3.67 10.66 3.34 11 3 C12.34267413 2.91368126 13.68974322 2.89293527 15.03515625 2.90234375 C15.84404297 2.90556641 16.65292969 2.90878906 17.48632812 2.91210938 C18.33646484 2.92048828 19.18660156 2.92886719 20.0625 2.9375 C20.91650391 2.94201172 21.77050781 2.94652344 22.65039062 2.95117188 C24.76695663 2.96299627 26.88348685 2.98093231 29 3 C29 3.99 29 4.98 29 6 C28.01 5.67 27.02 5.34 26 5 C26 5.66 26 6.32 26 7 C28.475 7.495 28.475 7.495 31 8 C30.67 9.32 30.34 10.64 30 12 C28.35 12 26.7 12 25 12 C24.505 10.515 24.505 10.515 24 9 C24.99 9 25.98 9 27 9 C25.02 8.01 23.04 7.02 21 6 C21 7.98 21 9.96 21 12 C20.01 12 19.02 12 18 12 C18 10.68 18 9.36 18 8 C16.35 8 14.7 8 13 8 C13 8.66 13 9.32 13 10 C14.32 10.33 15.64 10.66 17 11 C16 12 16 12 13.6875 12.0625 C12.800625 12.041875 11.91375 12.02125 11 12 C9.68 12 8.36 12 7 12 C3.66666667 12 0.33333333 12 -3 12 C-3 9.69 -3 7.38 -3 5 C-3.66 5 -4.32 5 -5 5 C-5 7.31 -5 9.62 -5 12 C-5.99 12 -6.98 12 -8 12 C-8 10.02 -8 8.04 -8 6 C-8.66 6 -9.32 6 -10 6 C-10 7.98 -10 9.96 -10 12 C-10.99 12 -11.98 12 -13 12 C-13 9.03 -13 6.06 -13 3 C-8.71 3 -4.42 3 0 3 C0 2.01 0 1.02 0 0 Z " fill="#E4A670" transform="translate(265,105)"/>
<path d="M0 0 C0.99 0 1.98 0 3 0 C3 0.99 3 1.98 3 3 C4.98 3 6.96 3 9 3 C9 4.32 9 5.64 9 7 C7.35 7 5.7 7 4 7 C4 8.65 4 10.3 4 12 C5.3921875 12.1546875 5.3921875 12.1546875 6.8125 12.3125 C10 13 10 13 11.9375 14.25 C13 16 13 16 12.875 18.5 C11.95581053 21.12625562 11.19906926 22.32870737 9 24 C8.34 24 7.68 24 7 24 C7 25.32 7 26.64 7 28 C6.01 28 5.02 28 4 28 C4 27.01 4 26.02 4 25 C1.69 25 -0.62 25 -3 25 C-3.33 23.35 -3.66 21.7 -4 20 C-1.69 20.33 0.62 20.66 3 21 C2.67 19.35 2.34 17.7 2 16 C1.05125 15.87625 0.1025 15.7525 -0.875 15.625 C-4 15 -4 15 -6 13 C-6.55408971 7.79155673 -6.55408971 7.79155673 -4.6875 5.125 C-3 4 -3 4 0 4 C0 2.68 0 1.36 0 0 Z " fill="#273E5F" transform="translate(46,88)"/>
<path d="M0 0 C1.98 0 3.96 0 6 0 C6.66 0.66 7.32 1.32 8 2 C8.99 1.34 9.98 0.68 11 0 C12.67293936 0.30027117 14.33985384 0.63557767 16 1 C18.23167185 0.63143136 18.23167185 0.63143136 20 0 C20.33 0.66 20.66 1.32 21 2 C21.33 1.34 21.66 0.68 22 0 C22.66 0 23.32 0 24 0 C24 0.66 24 1.32 24 2 C24.66 2 25.32 2 26 2 C26 1.34 26 0.68 26 0 C26.556875 0.185625 27.11375 0.37125 27.6875 0.5625 C30.05608681 1.16536239 30.05608681 1.16536239 32.625 0.4375 C33.40875 0.293125 34.1925 0.14875 35 0 C37 2 37 2 37 5 C35.35 5 33.7 5 32 5 C32 5.66 32 6.32 32 7 C33.32 7 34.64 7 36 7 C36 7.66 36 8.32 36 9 C33.6875 9.25 33.6875 9.25 31 9 C29.1875 7 29.1875 7 28 5 C27.67 6.32 27.34 7.64 27 9 C26.01 9 25.02 9 24 9 C24 8.34 24 7.68 24 7 C23.34 7 22.68 7 22 7 C22 7.66 22 8.32 22 9 C21.01 9 20.02 9 19 9 C18.67 8.01 18.34 7.02 18 6 C17.44892578 6.73669922 17.44892578 6.73669922 16.88671875 7.48828125 C14.19167724 9.64766233 12.21290785 9.29719058 8.8125 9.1875 C7.72582031 9.16042969 6.63914063 9.13335937 5.51953125 9.10546875 C4.27236328 9.05326172 4.27236328 9.05326172 3 9 C3 9.99 3 10.98 3 12 C2.01 12 1.02 12 0 12 C0 8.04 0 4.08 0 0 Z " fill="#E3A46C" transform="translate(160,108)"/>
<path d="M0 0 C1.65 0 3.3 0 5 0 C5 7.26 5 14.52 5 22 C5.99 22 6.98 22 8 22 C8.33 15.07 8.66 8.14 9 1 C10.65 1 12.3 1 14 1 C14.02505615 1.65597168 14.0501123 2.31194336 14.07592773 2.98779297 C14.1917326 5.95040183 14.31452886 8.91268031 14.4375 11.875 C14.47681641 12.90753906 14.51613281 13.94007812 14.55664062 15.00390625 C14.61948242 16.48310547 14.61948242 16.48310547 14.68359375 17.9921875 C14.72025146 18.90339355 14.75690918 19.81459961 14.79467773 20.75341797 C14.86577065 23.03483481 14.86577065 23.03483481 16 25 C14.88625 24.814375 13.7725 24.62875 12.625 24.4375 C9.17431139 23.68319343 9.17431139 23.68319343 7 25 C4 25.1875 4 25.1875 1 25 C-1 23 -1 23 -1.24291992 20.76928711 C-1.23881104 19.8644458 -1.23470215 18.95960449 -1.23046875 18.02734375 C-1.22853516 17.04572266 -1.22660156 16.06410156 -1.22460938 15.05273438 C-1.21236328 14.02470703 -1.20011719 12.99667969 -1.1875 11.9375 C-1.18685547 10.90560547 -1.18621094 9.87371094 -1.18554688 8.81054688 C-1.14015997 1.14015997 -1.14015997 1.14015997 0 0 Z " fill="#B8C4D0" transform="translate(170,67)"/>
<path d="M0 0 C-1.73115672 1.91338375 -3.24340605 3.13995848 -5.5 4.4375 C-8.17828613 6.11142883 -9.3696841 7.31726116 -11 10 C-11.36034523 12.58881802 -11.36034523 12.58881802 -11.1875 15.25 C-11.16042969 16.14203125 -11.13335937 17.0340625 -11.10546875 17.953125 C-11.07066406 18.62859375 -11.03585938 19.3040625 -11 20 C-9.68 20.33 -8.36 20.66 -7 21 C-4.13609892 15.14202052 -2.9877064 9.42590164 -2 3 C-0.68 3 0.64 3 2 3 C2 9.27 2 15.54 2 22 C3.32 22.33 4.64 22.66 6 23 C5 24 5 24 2.4375 24.0625 C1.633125 24.041875 0.82875 24.02125 0 24 C-0.66 22.68 -1.32 21.36 -2 20 C-2.66 20 -3.32 20 -4 20 C-4.99 22.475 -4.99 22.475 -6 25 C-9.3125 25.25 -9.3125 25.25 -13 25 C-15.30768994 22.77170306 -15.94775668 21.34217019 -16.43359375 18.16015625 C-16.4441111 9.81989742 -16.4441111 9.81989742 -14.375 6 C-6.51336898 -0.62032086 -6.51336898 -0.62032086 0 0 Z " fill="#1E496B" transform="translate(233,68)"/>
<path d="M0 0 C4.33252276 5.22890677 4.42607649 11.50233359 4 18 C1 20 1 20 -1.375 19.9375 C-5.20649785 18.56910791 -6.67082769 17.39393679 -9 14 C-9.57815463 9.9475143 -9.71582761 6.03846075 -9 2 C-5.52648925 -0.31567384 -4.08600528 -0.59587577 0 0 Z " fill="#F4F6F7" transform="translate(296,70)"/>
<path d="M0 0 C2.0625 1.25 2.0625 1.25 3 3 C2.6875 5.1875 2.6875 5.1875 2 7 C1.34 7 0.68 7 0 7 C-0.66 6.01 -1.32 5.02 -2 4 C-3.97747122 3.63702064 -3.97747122 3.63702064 -6.125 3.8125 C-7.40375 3.874375 -8.6825 3.93625 -10 4 C-9.38820938 6.99097639 -8.91249448 9.29877271 -6.4140625 11.21875 C-4.64155596 12.20596884 -2.82103587 13.10545607 -1 14 C-0.01 14.66 0.98 15.32 2 16 C2.40843923 18.71203652 2.13336867 21.2437142 2 24 C-1.64812473 26.33479983 -4.74187788 26.38018947 -9 26 C-11.4375 24.5 -11.4375 24.5 -13 23 C-12.67 21.68 -12.34 20.36 -12 19 C-9 20 -9 20 -8 22 C-4.97065509 22.65772428 -4.97065509 22.65772428 -2 23 C-3.71244753 18.53674041 -3.71244753 18.53674041 -7.4375 15.875 C-8.7059375 15.441875 -8.7059375 15.441875 -10 15 C-12.91364813 12.79507709 -13.85950951 11.66030532 -14.625 8.0625 C-13.91395038 4.57835685 -12.71975329 3.02315563 -9.85546875 0.9140625 C-6.40190418 -0.78727247 -3.79880023 -0.49820331 0 0 Z " fill="#2C5474" transform="translate(211,67)"/>
<path d="M0 0 C2.14762184 3.22143276 2.561068 4.2595467 2 8 C0 9.8125 0 9.8125 -2 11 C-2.33 8.69 -2.66 6.38 -3 4 C-6.54513381 3.67395005 -6.54513381 3.67395005 -9.6484375 5.16796875 C-11.50211272 7.68060943 -11.36654683 9.4068586 -11.3125 12.5 C-11.30863281 13.4590625 -11.30476563 14.418125 -11.30078125 15.40625 C-11.17217748 18.2348262 -11.17217748 18.2348262 -9 21 C-5.46327974 21.30754089 -2.38954801 21.04293785 1 20 C0 23 0 23 -2.625 24.75 C-6.72973969 26.27027396 -8.82781809 26.31346468 -13 25 C-16.18912545 21.72910211 -17.26594912 18.96961688 -17.5 14.5 C-17.27397305 10.01713217 -16.01242101 7.40879219 -13 4 C-8.67632534 0.34889696 -5.65810674 -0.76166822 0 0 Z " fill="#3D6280" transform="translate(278,67)"/>
<path d="M0 0 C2.14762184 3.22143276 2.561068 4.2595467 2 8 C0 9.8125 0 9.8125 -2 11 C-2.33 8.69 -2.66 6.38 -3 4 C-6.54513381 3.67395005 -6.54513381 3.67395005 -9.6484375 5.16796875 C-11.50211272 7.68060943 -11.36654683 9.4068586 -11.3125 12.5 C-11.30863281 13.4590625 -11.30476562 14.418125 -11.30078125 15.40625 C-11.17217748 18.2348262 -11.17217748 18.2348262 -9 21 C-5.46327974 21.30754089 -2.38954801 21.04293785 1 20 C0 23 0 23 -2.625 24.75 C-6.72973969 26.27027396 -8.82781809 26.31346468 -13 25 C-16.18912545 21.72910211 -17.26594912 18.96961688 -17.5 14.5 C-17.27397305 10.01713217 -16.01242101 7.40879219 -13 4 C-8.67632534 0.34889696 -5.65810674 -0.76166822 0 0 Z " fill="#375D7C" transform="translate(257,67)"/>
<path d="M0 0 C1.65 0 3.3 0 5 0 C5 0.99 5 1.98 5 3 C5.66 3 6.32 3 7 3 C7 9.27 7 15.54 7 22 C8.32 22 9.64 22 11 22 C11.33 21.01 11.66 20.02 12 19 C12.66 20.32 13.32 21.64 14 23 C13.01 23 12.02 23 11 23 C10.67 23.99 10.34 24.98 10 26 C8.02 26 6.04 26 4 26 C4 25.67 4 25.34 4 25 C5.65 24.67 7.3 24.34 9 24 C8.01 23.67 7.02 23.34 6 23 C6 16.73 6 10.46 6 4 C4.68 4 3.36 4 2 4 C1.97421875 4.70125 1.9484375 5.4025 1.921875 6.125 C1.52531673 12.75833827 0.35615286 17.26206125 -3 23 C-6.875 22.125 -6.875 22.125 -8 21 C-8.64145722 16.7615105 -8.9185767 12.69535969 -6.8359375 8.8515625 C-4.01173615 5.41907162 -1.3958818 3.16361577 3 2 C2.01 1.34 1.02 0.68 0 0 Z " fill="#D9DFE5" transform="translate(229,67)"/>
<path d="M0 0 C0.66 1.32 1.32 2.64 2 4 C-0.64 4 -3.28 4 -6 4 C-6 5.65 -6 7.3 -6 9 C-4.68 9.66 -3.36 10.32 -2 11 C-2.969375 11.721875 -3.93875 12.44375 -4.9375 13.1875 C-7.29913506 15.13237593 -7.93412331 15.7882535 -8.875 18.8125 C-8.91625 19.534375 -8.9575 20.25625 -9 21 C-4.1607918 21.27918509 -1.65919331 21.25261627 2 18 C2.66 18 3.32 18 4 18 C2.59505784 21.39527689 1.30238306 23.30647023 -2 25 C-9.60149609 26.01904114 -9.60149609 26.01904114 -12.78515625 23.69921875 C-14 22 -14 22 -13.875 18.4375 C-13 15 -13 15 -10 13 C-10.13019531 12.39671875 -10.26039063 11.7934375 -10.39453125 11.171875 C-10.81820799 8.71692567 -11.09434231 6.49149466 -11 4 C-7.76385767 -0.02066169 -5.01179061 -0.46621308 0 0 Z " fill="#244D6F" transform="translate(141,67)"/>
<path d="M0 0 C5.66666667 0 11.33333333 0 17 0 C17.05395478 1.62463842 17.09277195 3.24978541 17.125 4.875 C17.14820313 5.77992187 17.17140625 6.68484375 17.1953125 7.6171875 C17 10 17 10 15 12 C12.375 11.625 12.375 11.625 10 11 C10.33 10.34 10.66 9.68 11 9 C10.01 9 9.02 9 8 9 C7.01 9 6.02 9 5 9 C5 7.02 5 5.04 5 3 C4.34 3 3.68 3 3 3 C3 4.98 3 6.96 3 9 C2.01 9 1.02 9 0 9 C0 6.03 0 3.06 0 0 Z " fill="#E3A56E" transform="translate(208,108)"/>
<path d="M0 0 C15.5 0 15.5 0 20 1 C20.33 2.32 20.66 3.64 21 5 C19.35 5 17.7 5 16 5 C16 5.66 16 6.32 16 7 C17.32 7 18.64 7 20 7 C20 7.66 20 8.32 20 9 C16.7 9 13.4 9 10 9 C10 6.69 10 4.38 10 2 C9.01 2 8.02 2 7 2 C7 4.31 7 6.62 7 9 C4.69 9 2.38 9 0 9 C0 6.03 0 3.06 0 0 Z " fill="#DB8A43" transform="translate(230,108)"/>
<path d="M0 0 C2.31 0 4.62 0 7 0 C7 0.66 7 1.32 7 2 C5.35 2 3.7 2 2 2 C2 2.99 2 3.98 2 5 C3.32 5 4.64 5 6 5 C6 5.66 6 6.32 6 7 C4.68 7 3.36 7 2 7 C2 7.99 2 8.98 2 10 C3.98 10 5.96 10 8 10 C8 7.69 8 5.38 8 3 C9.81242052 2.97312721 11.62495233 2.95366285 13.4375 2.9375 C14.44683594 2.92589844 15.45617187 2.91429688 16.49609375 2.90234375 C19 3 19 3 20 4 C20.14115161 6.67058851 20.04247107 9.32432238 20 12 C19.34 12 18.68 12 18 12 C18 9.69 18 7.38 18 5 C17.34 5 16.68 5 16 5 C16 7.31 16 9.62 16 12 C15.01 12 14.02 12 13 12 C13 10.02 13 8.04 13 6 C12.34 6 11.68 6 11 6 C11 7.98 11 9.96 11 12 C7.37 12 3.74 12 0 12 C0 8.04 0 4.08 0 0 Z " fill="#E09C60" transform="translate(138,105)"/>
<path d="M0 0 C0.33 0.66 0.66 1.32 1 2 C1.99 2 2.98 2 4 2 C4 2.99 4 3.98 4 5 C2.68 4.67 1.36 4.34 0 4 C0 4.99 0 5.98 0 7 C1.32 7.66 2.64 8.32 4 9 C3.67 10.65 3.34 12.3 3 14 C1.02 14.66 -0.96 15.32 -3 16 C-3 15.34 -3 14.68 -3 14 C-4.32 13.67 -5.64 13.34 -7 13 C-7 12.01 -7 11.02 -7 10 C-5.68 10.33 -4.36 10.66 -3 11 C-3 10.01 -3 9.02 -3 8 C-3.99 7.67 -4.98 7.34 -6 7 C-6 5.35 -6 3.7 -6 2 C-4.02 1.34 -2.04 0.68 0 0 Z " fill="#243B5C" transform="translate(29,54)"/>
<path d="M0 0 C1.98 0 3.96 0 6 0 C6.66 0.66 7.32 1.32 8 2 C8.99 1.67 9.98 1.34 11 1 C11.99 1.33 12.98 1.66 14 2 C14 3.65 14 5.3 14 7 C10.3791799 8.01382963 6.72188582 8.49897691 3 9 C3 9.99 3 10.98 3 12 C2.01 12 1.02 12 0 12 C0 8.04 0 4.08 0 0 Z " fill="#E6AE7D" transform="translate(160,108)"/>
<path d="M0 0 C1.32 0 2.64 0 4 0 C4.33 6.93 4.66 13.86 5 21 C6.32 21.66 7.64 22.32 9 23 C8 24 8 24 5.0625 24.1875 C2 24 2 24 0 22 C-0.22705078 19.75341797 -0.22705078 19.75341797 -0.1953125 16.9921875 C-0.18886719 16.00605469 -0.18242187 15.01992187 -0.17578125 14.00390625 C-0.15902344 12.97136719 -0.14226562 11.93882813 -0.125 10.875 C-0.11597656 9.83472656 -0.10695312 8.79445313 -0.09765625 7.72265625 C-0.07403747 5.14820908 -0.04110149 2.57421788 0 0 Z " fill="#1D486B" transform="translate(169,68)"/>
<path d="M0 0 C2.1385485 2.1385485 2.42655063 3.13275314 3 6 C1.68 6 0.36 6 -1 6 C-0.979375 6.94875 -0.95875 7.8975 -0.9375 8.875 C-1 12 -1 12 -2 14 C-4.31 14 -6.62 14 -9 14 C-10.4606285 11.35261084 -11 10.10551666 -11 7 C-8.525 7.495 -8.525 7.495 -6 8 C-6.309375 6.824375 -6.309375 6.824375 -6.625 5.625 C-6.74875 4.75875 -6.8725 3.8925 -7 3 C-4.6226839 0.6226839 -3.29714793 0.32971479 0 0 Z " fill="#4C5C77" transform="translate(61,24)"/>
<path d="M0 0 C6.93359375 -0.09765625 6.93359375 -0.09765625 9 0 C10 1 10 1 10.375 3.75 C10 7 10 7 7.75 9.875 C5 12 5 12 1 12 C0.67 8.04 0.34 4.08 0 0 Z " fill="#F2F4F6" transform="translate(152,71)"/>
<path d="M0 0 C1.32 0 2.64 0 4 0 C4 6.27 4 12.54 4 19 C5.32 19.33 6.64 19.66 8 20 C7 21 7 21 4.5 21.125 C2 21 2 21 1 20 C0.95907063 17.66702567 0.95758277 15.33294775 1 13 C0.34 13 -0.32 13 -1 13 C-0.67 8.71 -0.34 4.42 0 0 Z " fill="#184467" transform="translate(231,71)"/>
<path d="M0 0 C0.33 0 0.66 0 1 0 C1.20496094 0.63808594 1.40992188 1.27617188 1.62109375 1.93359375 C1.89050781 2.75988281 2.15992188 3.58617188 2.4375 4.4375 C2.70433594 5.26121094 2.97117187 6.08492188 3.24609375 6.93359375 C3.82155494 8.96219588 3.82155494 8.96219588 5 10 C8.52637472 10.15672777 11.61905851 10.04028969 15 9 C14 12 14 12 11.375 13.75 C7.33150624 15.24759028 5.13005295 15.16888291 1 14 C-0.9375 12.375 -0.9375 12.375 -2 10 C-2.38503486 5.61060262 -2.47342266 3.71013399 0 0 Z " fill="#174367" transform="translate(264,78)"/>
<path d="M0 0 C8.17134516 0.19206153 8.17134516 0.19206153 11.5 3.4375 C13.45804163 6.78248778 14.15586468 8.58431832 14.1875 12.4375 C14.20167969 13.21996094 14.21585937 14.00242187 14.23046875 14.80859375 C14 17 14 17 12 20 C11.34 20 10.68 20 10 20 C9.91363281 19.03578125 9.82726562 18.0715625 9.73828125 17.078125 C9.59777344 15.81484375 9.45726562 14.5515625 9.3125 13.25 C9.18488281 11.99703125 9.05726563 10.7440625 8.92578125 9.453125 C7.81511883 5.31040103 6.54897153 4.27730107 3 2 C2.01 1.34 1.02 0.68 0 0 Z " fill="#1E496B" transform="translate(291,68)"/>
<path d="M0 0 C1.81242052 -0.02687279 3.62495233 -0.04633715 5.4375 -0.0625 C6.44683594 -0.07410156 7.45617187 -0.08570312 8.49609375 -0.09765625 C11 0 11 0 12 1 C12.14115161 3.67058851 12.04247107 6.32432238 12 9 C11.34 9 10.68 9 10 9 C10 6.69 10 4.38 10 2 C9.34 2 8.68 2 8 2 C8 4.31 8 6.62 8 9 C7.01 9 6.02 9 5 9 C5 7.02 5 5.04 5 3 C4.34 3 3.68 3 3 3 C3 4.98 3 6.96 3 9 C2.01 9 1.02 9 0 9 C0 6.03 0 3.06 0 0 Z " fill="#E19D61" transform="translate(252,108)"/>
<path d="M0 0 C0.66 1.32 1.32 2.64 2 4 C-0.64 4 -3.28 4 -6 4 C-6 5.65 -6 7.3 -6 9 C-4.68 9.66 -3.36 10.32 -2 11 C-3.98 12.32 -5.96 13.64 -8 15 C-10.7439311 12.2560689 -10.81572214 9.97542952 -11.15625 6.19921875 C-11 4 -11 4 -8.9375 1.4375 C-5.66663647 -0.16313535 -3.59447787 -0.33437003 0 0 Z " fill="#496B87" transform="translate(141,67)"/>
<path d="M0 0 C2.33524782 2.25740623 4.18705073 4.2805761 6 7 C9.53672026 7.30754089 12.61045199 7.04293785 16 6 C15 9 15 9 12.375 10.75 C8.33150624 12.24759028 6.13005295 12.16888291 2 11 C-0.70203634 8.64661351 -0.96881663 7.39758792 -1.25 3.8125 C-1 1 -1 1 0 0 Z " fill="#174367" transform="translate(242,81)"/>
<path d="M0 0 C0.99 0 1.98 0 3 0 C3.02505615 0.65597168 3.0501123 1.31194336 3.07592773 1.98779297 C3.1917326 4.95040183 3.31452886 7.91268031 3.4375 10.875 C3.47681641 11.90753906 3.51613281 12.94007812 3.55664062 14.00390625 C3.61948242 15.48310547 3.61948242 15.48310547 3.68359375 16.9921875 C3.72025146 17.90339355 3.75690918 18.81459961 3.79467773 19.75341797 C3.86577065 22.03483481 3.86577065 22.03483481 5 24 C3.35 23.67 1.7 23.34 0 23 C-1.21074074 15.19744856 -0.72526532 7.84402334 0 0 Z " fill="#0B395F" transform="translate(181,68)"/>
<path d="M0 0 C0.8353125 0.2784375 0.8353125 0.2784375 1.6875 0.5625 C4.05608681 1.16536239 4.05608681 1.16536239 6.625 0.4375 C7.40875 0.293125 8.1925 0.14875 9 0 C11 2 11 2 11 5 C9.35 5 7.7 5 6 5 C6 5.66 6 6.32 6 7 C7.32 7 8.64 7 10 7 C10 7.66 10 8.32 10 9 C7.8125 9.3125 7.8125 9.3125 5 9 C2.3125 6.5 2.3125 6.5 0 4 C-0.66 4 -1.32 4 -2 4 C-2 3.34 -2 2.68 -2 2 C-1.34 2 -0.68 2 0 2 C0 1.34 0 0.68 0 0 Z " fill="#E6AF7E" transform="translate(186,108)"/>
<path d="M0 0 C1.65 0 3.3 0 5 0 C5 7.26 5 14.52 5 22 C5.99 22 6.98 22 8 22 C7.34 23.32 6.68 24.64 6 26 C4.35 26 2.7 26 1 26 C0.67 25.34 0.34 24.68 0 24 C1.32 24 2.64 24 4 24 C3.67 23.67 3.34 23.34 3 23 C2.91299658 21.36527118 2.89298937 19.72685945 2.90234375 18.08984375 C2.90556641 17.10048828 2.90878906 16.11113281 2.91210938 15.09179688 C2.92048828 14.05087891 2.92886719 13.00996094 2.9375 11.9375 C2.94201172 10.89271484 2.94652344 9.84792969 2.95117188 8.77148438 C2.96300087 6.1809334 2.97948311 3.59049441 3 1 C2.01 0.67 1.02 0.34 0 0 Z " fill="#99ACBC" transform="translate(181,67)"/>
<path d="M0 0 C6.42210386 -0.48468708 6.42210386 -0.48468708 8.9375 1.625 C10.30225246 4.67562315 10.41407022 6.68743824 10 10 C8.625 12.375 8.625 12.375 7 14 C6.34 14 5.68 14 5 14 C5.05800781 13.32453125 5.11601562 12.6490625 5.17578125 11.953125 C5.31376976 9.22489502 5.36106517 6.71011266 5 4 C2.70142894 1.32181017 2.70142894 1.32181017 0 0 Z " fill="#174367" transform="translate(156,68)"/>
<path d="M0 0 C0.66 0 1.32 0 2 0 C2 6.27 2 12.54 2 19 C1.01 19 0.02 19 -1 19 C-1.02683987 16.02077407 -1.04676037 13.04178705 -1.0625 10.0625 C-1.07087891 9.21236328 -1.07925781 8.36222656 -1.08789062 7.48632812 C-1.09111328 6.67744141 -1.09433594 5.86855469 -1.09765625 5.03515625 C-1.10289307 4.2862915 -1.10812988 3.53742676 -1.11352539 2.76586914 C-1 1 -1 1 0 0 Z " fill="#0A395E" transform="translate(150,73)"/>
<path d="M0 0 C2.31 0 4.62 0 7 0 C7 0.66 7 1.32 7 2 C5.35 2 3.7 2 2 2 C2 2.99 2 3.98 2 5 C3.32 5 4.64 5 6 5 C6 5.66 6 6.32 6 7 C4.68 7 3.36 7 2 7 C2 7.99 2 8.98 2 10 C3.65 10 5.3 10 7 10 C7 10.66 7 11.32 7 12 C4.69 12 2.38 12 0 12 C0 8.04 0 4.08 0 0 Z " fill="#DA863D" transform="translate(138,105)"/>
<path d="M0 0 C0.66 0.33 1.32 0.66 2 1 C2.56198222 3.46499081 2.97852891 5.81589092 3.3125 8.3125 C3.42400391 8.98990234 3.53550781 9.66730469 3.65039062 10.36523438 C4.08196837 13.49646864 4.19964385 15.57726421 2.8359375 18.46484375 C0.49930987 20.41866218 -0.68191395 20.42423687 -3.6875 20.25 C-4.49574219 20.21390625 -5.30398438 20.1778125 -6.13671875 20.140625 C-7.05904297 20.07101563 -7.05904297 20.07101563 -8 20 C-7.34 19.34 -6.68 18.68 -6 18 C-6.66 17.01 -7.32 16.02 -8 15 C-6.88625 15.185625 -5.7725 15.37125 -4.625 15.5625 C-1.17431139 16.31680657 -1.17431139 16.31680657 1 15 C1.09038099 9.84828377 0.84681133 5.08086796 0 0 Z " fill="#7992A7" transform="translate(298,73)"/>
<path d="M0 0 C3 1 3 1 4 3 C9.14101356 4.15681364 9.14101356 4.15681364 14 3 C13.67 3.99 13.34 4.98 13 6 C9.43528609 7.18823797 6.7441664 7.26274852 3 7 C0.5625 5.5 0.5625 5.5 -1 4 C-0.67 2.68 -0.34 1.36 0 0 Z " fill="#5C7B94" transform="translate(199,86)"/>
<path d="M0 0 C0.66 0 1.32 0 2 0 C2 7.59 2 15.18 2 23 C0.68 22.67 -0.64 22.34 -2 22 C-1.505 20.515 -1.505 20.515 -1 19 C-0.85426942 17.52034074 -0.75336732 16.03596157 -0.68359375 14.55078125 C-0.64169922 13.70322266 -0.59980469 12.85566406 -0.55664062 11.98242188 C-0.49766602 10.66081055 -0.49766602 10.66081055 -0.4375 9.3125 C-0.39431641 8.41982422 -0.35113281 7.52714844 -0.30664062 6.60742188 C-0.20064647 4.40509892 -0.09857949 2.20266527 0 0 Z " fill="#9EB0BF" transform="translate(179,68)"/>
<path d="M0 0 C0.33 0 0.66 0 1 0 C1 3.3 1 6.6 1 10 C-0.98 10 -2.96 10 -5 10 C-5 9.01 -5 8.02 -5 7 C-3.68 7 -2.36 7 -1 7 C-1 6.34 -1 5.68 -1 5 C-2.32 5 -3.64 5 -5 5 C-5 4.01 -5 3.02 -5 2 C-3.35 2 -1.7 2 0 2 C0 1.34 0 0.68 0 0 Z " fill="#F9ECE1" transform="translate(145,105)"/>
<path d="M0 0 C3.63 0 7.26 0 11 0 C11 0.33 11 0.66 11 1 C7.7 1 4.4 1 1 1 C2.98 1.495 2.98 1.495 5 2 C5 4.31 5 6.62 5 9 C3.35 9 1.7 9 0 9 C0 6.03 0 3.06 0 0 Z " fill="#E5AC79" transform="translate(230,108)"/>
<path d="M0 0 C-2.37432064 2.62424913 -4.94270891 4.24205762 -8 6 C-8.99 6.66 -9.98 7.32 -11 8 C-11.99 8 -12.98 8 -14 8 C-11.72632717 1.63371608 -6.41192463 -0.61065949 0 0 Z " fill="#466985" transform="translate(233,68)"/>
<path d="M0 0 C0.33 0 0.66 0 1 0 C1 6.93 1 13.86 1 21 C0.67 21 0.34 21 0 21 C-0.33 18.03 -0.66 15.06 -1 12 C-1.66 12 -2.32 12 -3 12 C-3 8.7 -3 5.4 -3 2 C-2.01 2.495 -2.01 2.495 -1 3 C-0.67 2.01 -0.34 1.02 0 0 Z " fill="#D2DBE2" transform="translate(168,68)"/>
<path d="M0 0 C2.1385485 2.1385485 2.42655063 3.13275314 3 6 C0.23723823 5.47731534 -2.3260876 4.89130413 -5 4 C-5 4.66 -5 5.32 -5 6 C-4.34 6 -3.68 6 -3 6 C-3 6.66 -3 7.32 -3 8 C-3.99 7.67 -4.98 7.34 -6 7 C-6.8125 5.0625 -6.8125 5.0625 -7 3 C-4.6226839 0.6226839 -3.29714793 0.32971479 0 0 Z " fill="#2C4161" transform="translate(61,24)"/>
<path d="M0 0 C1.65 0.99 3.3 1.98 5 3 C4.67 4.98 4.34 6.96 4 9 C2.68 9.33 1.36 9.66 0 10 C0 6.7 0 3.4 0 0 Z " fill="#F8F1E8" transform="translate(109,88)"/>
<path d="M0 0 C-1.98 0.33 -3.96 0.66 -6 1 C-6 1.66 -6 2.32 -6 3 C-8.12124966 3.86343824 -10.24713072 4.71550648 -12.375 5.5625 C-14.15003906 6.27599609 -14.15003906 6.27599609 -15.9609375 7.00390625 C-19 8 -19 8 -21 7 C-7.34317779 -2.41464855 -7.34317779 -2.41464855 0 0 Z " fill="#485974" transform="translate(102,46)"/>
<path d="M0 0 C1.65 0.33 3.3 0.66 5 1 C4.67 1.66 4.34 2.32 4 3 C3.01 2.67 2.02 2.34 1 2 C1 2.66 1 3.32 1 4 C2.65 4.33 4.3 4.66 6 5 C5.67 6.32 5.34 7.64 5 9 C3.35 9 1.7 9 0 9 C-0.33 8.01 -0.66 7.02 -1 6 C-0.01 6 0.98 6 2 6 C1.34 5.67 0.68 5.34 0 5 C0 3.35 0 1.7 0 0 Z " fill="#DE9453" transform="translate(290,108)"/>
<path d="M0 0 C2.875 -0.125 2.875 -0.125 6 0 C8 2 8 2 8.375 4.4375 C8 7 8 7 6 8.8125 C5.34 9.204375 4.68 9.59625 4 10 C3.896875 8.906875 3.79375 7.81375 3.6875 6.6875 C3.02692273 3.14440371 2.7972908 2.06756277 0 0 Z " fill="#1B4669" transform="translate(251,68)"/>
<path d="M0 0 C2.875 -0.125 2.875 -0.125 6 0 C8 2 8 2 8.375 4.4375 C8 7 8 7 6 8.8125 C5.34 9.204375 4.68 9.59625 4 10 C3.896875 8.906875 3.79375 7.81375 3.6875 6.6875 C3.02692273 3.14440371 2.7972908 2.06756277 0 0 Z " fill="#1A4669" transform="translate(272,68)"/>
<path d="M0 0 C0.33 0.66 0.66 1.32 1 2 C1.99 2 2.98 2 4 2 C4 2.99 4 3.98 4 5 C2.72125 5.144375 1.4425 5.28875 0.125 5.4375 C-2.25692894 5.70642746 -3.84452691 5.92226346 -6 7 C-6 5.35 -6 3.7 -6 2 C-4.02 1.34 -2.04 0.68 0 0 Z " fill="#334866" transform="translate(29,54)"/>
<path d="M0 0 C0 1.65 0 3.3 0 5 C-2.66666667 5.66666667 -5.33333333 6.33333333 -8 7 C-7.74438677 4.6568787 -7.40729228 2.32156597 -7 0 C-4.3333581 -1.33332095 -2.83319697 -0.67102033 0 0 Z " fill="#EDC5A1" transform="translate(174,110)"/>
<path d="M0 0 C-1.98 0.99 -1.98 0.99 -4 2 C-3.34 2.66 -2.68 3.32 -2 4 C-2.90492188 4.09087891 -2.90492188 4.09087891 -3.828125 4.18359375 C-5.02695313 4.30927734 -5.02695313 4.30927734 -6.25 4.4375 C-7.03890625 4.51871094 -7.8278125 4.59992188 -8.640625 4.68359375 C-10.82364639 4.97634993 -12.8773182 5.42064419 -15 6 C-15 5.34 -15 4.68 -15 4 C-9.60931587 0.40621058 -6.46326465 -0.45356243 0 0 Z " fill="#7C94A9" transform="translate(162,67)"/>
<path d="M0 0 C0.33 0.66 0.66 1.32 1 2 C1.66 2 2.32 2 3 2 C3 3.98 3 5.96 3 8 C2.67 7.34 2.34 6.68 2 6 C1.34 6 0.68 6 0 6 C-0.66 7.65 -1.32 9.3 -2 11 C-4.31 11 -6.62 11 -9 11 C-9 10.67 -9 10.34 -9 10 C-7.02 9.67 -5.04 9.34 -3 9 C-2.01 6.03 -1.02 3.06 0 0 Z " fill="#758FA4" transform="translate(229,82)"/>
<path d="M0 0 C1.65 0.33 3.3 0.66 5 1 C5.04241723 3.33294775 5.04092937 5.66702567 5 8 C4 9 4 9 1.4375 9.0625 C0.633125 9.041875 -0.17125 9.02125 -1 9 C-1 7.02 -1 5.04 -1 3 C-0.67 4.32 -0.34 5.64 0 7 C0.99 7 1.98 7 3 7 C3 5.35 3 3.7 3 2 C2.01 2 1.02 2 0 2 C0 1.34 0 0.68 0 0 Z " fill="#DD904D" transform="translate(171,108)"/>
<path d="M0 0 C1.98 0 3.96 0 6 0 C6 0.66 6 1.32 6 2 C4.68 2 3.36 2 2 2 C2.185625 2.9075 2.37125 3.815 2.5625 4.75 C2.95734621 7.68314324 2.94691572 9.2644657 2 12 C1.34 12 0.68 12 0 12 C0 8.04 0 4.08 0 0 Z " fill="#DD914E" transform="translate(160,108)"/>
<path d="M0 0 C0.33 0 0.66 0 1 0 C1.07347656 1.03060547 1.07347656 1.03060547 1.1484375 2.08203125 C1.22320312 2.98308594 1.29796875 3.88414063 1.375 4.8125 C1.44460937 5.70582031 1.51421875 6.59914063 1.5859375 7.51953125 C1.86645036 10.24398499 1.86645036 10.24398499 4 13 C2.68 12.34 1.36 11.68 0 11 C0 10.34 0 9.68 0 9 C-0.99 9.33 -1.98 9.66 -3 10 C-3 8.35 -3 6.7 -3 5 C-2.34 5 -1.68 5 -1 5 C-0.67 3.35 -0.34 1.7 0 0 Z " fill="#B7C4CF" transform="translate(216,79)"/>
<path d="M0 0 C1.65 0.33 3.3 0.66 5 1 C5 1.99 5 2.98 5 4 C3.35 4 1.7 4 0 4 C0 4.66 0 5.32 0 6 C1.32 6 2.64 6 4 6 C4 6.66 4 7.32 4 8 C2.33388095 8.042721 0.66617115 8.04063832 -1 8 C-2 7 -2 7 -2.0625 4.4375 C-2.041875 3.633125 -2.02125 2.82875 -2 2 C0.475 2.495 0.475 2.495 3 3 C3 2.34 3 1.68 3 1 C2.01 0.67 1.02 0.34 0 0 Z " fill="#DB8A43" transform="translate(246,109)"/>
<path d="M0 0 C1.65 0.33 3.3 0.66 5 1 C5 1.99 5 2.98 5 4 C3.35 4 1.7 4 0 4 C0 4.66 0 5.32 0 6 C1.32 6 2.64 6 4 6 C4 6.66 4 7.32 4 8 C2.33388095 8.042721 0.66617115 8.04063832 -1 8 C-2 7 -2 7 -2.0625 4.4375 C-2.041875 3.633125 -2.02125 2.82875 -2 2 C0.475 2.495 0.475 2.495 3 3 C3 2.34 3 1.68 3 1 C2.01 0.67 1.02 0.34 0 0 Z " fill="#DB8A43" transform="translate(192,109)"/>
<path d="M0 0 C0.6875 1.8125 0.6875 1.8125 1 4 C-0.0625 5.75 -0.0625 5.75 -2 7 C-5.1875 7.1875 -5.1875 7.1875 -8 7 C-8 9.31 -8 11.62 -8 14 C-8.33 14 -8.66 14 -9 14 C-9 11.36 -9 8.72 -9 6 C-7.88625 5.566875 -6.7725 5.13375 -5.625 4.6875 C-1.82487666 3.30088881 -1.82487666 3.30088881 0 0 Z " fill="#617E97" transform="translate(161,78)"/>
<path d="M0 0 C0.66 0 1.32 0 2 0 C2 2.97 2 5.94 2 9 C0.68 8.34 -0.64 7.68 -2 7 C-2.125 4.625 -2.125 4.625 -2 2 C-1.34 1.34 -0.68 0.68 0 0 Z " fill="#F6EADE" transform="translate(101,69)"/>
<path d="M0 0 C0.66 1.32 1.32 2.64 2 4 C0.54207116 4.05399736 -0.91642712 4.09279177 -2.375 4.125 C-3.18710938 4.14820312 -3.99921875 4.17140625 -4.8359375 4.1953125 C-7 4 -7 4 -9 2 C-5.5647952 -0.29013653 -4.014669 -0.17842973 0 0 Z " fill="#577791" transform="translate(141,67)"/>
<path d="M0 0 C0.598125 0.20625 1.19625 0.4125 1.8125 0.625 C1.8125 1.615 1.8125 2.605 1.8125 3.625 C0.4925 3.625 -0.8275 3.625 -2.1875 3.625 C-2.8475 5.275 -3.5075 6.925 -4.1875 8.625 C-4.5175 8.625 -4.8475 8.625 -5.1875 8.625 C-5.375 5.25 -5.375 5.25 -5.1875 1.625 C-2.1875 -0.375 -2.1875 -0.375 0 0 Z " fill="#E9B98D" transform="translate(247.1875,108.375)"/>
<path d="M0 0 C0.66 0 1.32 0 2 0 C3.4783226 2.95664519 3.06032783 5.74229737 3 9 C1.68 9 0.36 9 -1 9 C-0.67 6.03 -0.34 3.06 0 0 Z " fill="#E2A067" transform="translate(146,108)"/>
<path d="M0 0 C1.69433918 3.0469629 2.49467112 5.82821466 3.125 9.25 C3.29257812 10.14203125 3.46015625 11.0340625 3.6328125 11.953125 C3.75398438 12.62859375 3.87515625 13.3040625 4 14 C1.47411298 11.63707344 0.11179163 10.33537489 -1 7 C-0.72230092 4.6593935 -0.39460023 2.32375692 0 0 Z " fill="#5A6981" transform="translate(14,92)"/>
<path d="M0 0 C-1 3 -1 3 -3.75 4.6875 C-6.85020705 5.93950669 -8.71671912 6.28970125 -12 6 C-10.68 5.67 -9.36 5.34 -8 5 C-8.33 4.01 -8.66 3.02 -9 2 C-2.25 0 -2.25 0 0 0 Z " fill="#5D7B94" transform="translate(279,87)"/>
<path d="M0 0 C-1 3 -1 3 -3.75 4.6875 C-6.85020705 5.93950669 -8.71671912 6.28970125 -12 6 C-10.68 5.67 -9.36 5.34 -8 5 C-8.33 4.01 -8.66 3.02 -9 2 C-2.25 0 -2.25 0 0 0 Z " fill="#5D7B95" transform="translate(258,87)"/>
<path d="M0 0 C1.98 0 3.96 0 6 0 C6 0.66 6 1.32 6 2 C4.68 2 3.36 2 2 2 C2 4.31 2 6.62 2 9 C1.34 9 0.68 9 0 9 C0 6.03 0 3.06 0 0 Z " fill="#DD924F" transform="translate(208,108)"/>
<path d="M0 0 C0.66 0 1.32 0 2 0 C2 1.32 2 2.64 2 4 C2.99 3.67 3.98 3.34 5 3 C5 4.98 5 6.96 5 9 C4.01 9 3.02 9 2 9 C2 7.68 2 6.36 2 5 C1.34 5 0.68 5 0 5 C0 3.35 0 1.7 0 0 Z " fill="#DD8F4B" transform="translate(182,108)"/>
<path d="M0 0 C0.99 0 1.98 0 3 0 C2.67 3.96 2.34 7.92 2 12 C1.34 12 0.68 12 0 12 C0 8.04 0 4.08 0 0 Z " fill="#E09B5F" transform="translate(204,105)"/>
<path d="M0 0 C0.33 0 0.66 0 1 0 C1.36305732 5.44585987 1.36305732 5.44585987 -0.1875 7.8125 C-2.42031739 9.27538036 -4.37344067 9.64505955 -7 10 C-6.34 7.03 -5.68 4.06 -5 1 C-4.67 1 -4.34 1 -4 1 C-3.67 2.98 -3.34 4.96 -3 7 C-0.64046906 4.64046906 -0.50858587 3.22104383 0 0 Z " fill="#A8B8C5" transform="translate(280,70)"/>
<path d="M0 0 C0.33 0 0.66 0 1 0 C1.36305732 5.44585987 1.36305732 5.44585987 -0.1875 7.8125 C-2.42031739 9.27538036 -4.37344067 9.64505955 -7 10 C-6.34 7.03 -5.68 4.06 -5 1 C-4.67 1 -4.34 1 -4 1 C-3.67 2.98 -3.34 4.96 -3 7 C-0.64046906 4.64046906 -0.50858587 3.22104383 0 0 Z " fill="#A8B8C5" transform="translate(259,70)"/>
<path d="M0 0 C2.97 0.33 5.94 0.66 9 1 C9.33 2.32 9.66 3.64 10 5 C9.01 5.33 8.02 5.66 7 6 C6.401875 5.38125 5.80375 4.7625 5.1875 4.125 C2.99188856 1.86323046 2.99188856 1.86323046 0 0 Z " fill="#1C476A" transform="translate(204,68)"/>
<path d="M0 0 C1.65 0 3.3 0 5 0 C5 0.66 5 1.32 5 2 C4.01 2.495 4.01 2.495 3 3 C2.34227572 6.02934491 2.34227572 6.02934491 2 9 C1.34 9 0.68 9 0 9 C0 6.03 0 3.06 0 0 Z " fill="#DE9351" transform="translate(198,108)"/>
<path d="M0 0 C4.2742558 1.5830577 6.26531794 4.50568404 9 8 C4.56541027 6.6062718 2.12621626 4.39417765 -1 1 C-0.67 0.67 -0.34 0.34 0 0 Z " fill="#3C4F6D" transform="translate(43,126)"/>
<path d="M0 0 C4.455 2.97 4.455 2.97 9 6 C5 7 5 7 1.75 5.0625 C0.8425 4.381875 -0.065 3.70125 -1 3 C-0.67 2.01 -0.34 1.02 0 0 Z " fill="#606E87" transform="translate(85,122)"/>
<path d="M0 0 C0.66 0 1.32 0 2 0 C1.0518738 2.37031549 0.31103322 3.76672508 -1.75 5.3125 C-4.75172093 6.22969251 -6.97769126 5.68688835 -10 5 C-9.67 4.34 -9.34 3.68 -9 3 C-6.66752239 2.66073053 -4.33414529 2.32759934 -2 2 C-1.34 1.34 -0.68 0.68 0 0 Z " fill="#597992" transform="translate(143,85)"/>
<path d="M0 0 C0.99 0.33 1.98 0.66 3 1 C3 3.64 3 6.28 3 9 C2.34 9 1.68 9 1 9 C1 8.34 1 7.68 1 7 C-0.32 7 -1.64 7 -3 7 C-3 6.34 -3 5.68 -3 5 C-1.35 5 0.3 5 2 5 C1.34 3.35 0.68 1.7 0 0 Z " fill="#F5DDC8" transform="translate(249,108)"/>
<path d="M0 0 C3.03063487 0.58929011 6.0017825 1.25044562 9 2 C5.04 2.99 1.08 3.98 -3 5 C-2.01 3.35 -1.02 1.7 0 0 Z " fill="#C7CCD3" transform="translate(49,67)"/>
<path d="M0 0 C-3.1254959 2.64465038 -6.08788267 3.84414715 -10 5 C-10.66 4.34 -11.32 3.68 -12 3 C-7.89542386 0.01485372 -5.02254631 -0.2954439 0 0 Z " fill="#728CA2" transform="translate(278,67)"/>
<path d="M0 0 C-3.1254959 2.64465038 -6.08788267 3.84414715 -10 5 C-10.66 4.34 -11.32 3.68 -12 3 C-7.89542386 0.01485372 -5.02254631 -0.2954439 0 0 Z " fill="#728CA2" transform="translate(257,67)"/>
<path d="M0 0 C0.66 0 1.32 0 2 0 C2 2.64 2 5.28 2 8 C1.34 8 0.68 8 0 8 C0 7.34 0 6.68 0 6 C-1.32 6 -2.64 6 -4 6 C-4 5.34 -4 4.68 -4 4 C-2.35 4 -0.7 4 1 4 C0.67 2.68 0.34 1.36 0 0 Z " fill="#F3D8BF" transform="translate(196,109)"/>
<path d="M0 0 C1.8871875 0.061875 1.8871875 0.061875 3.8125 0.125 C4.1425 0.785 4.4725 1.445 4.8125 2.125 C4.07 2.08375 3.3275 2.0425 2.5625 2 C-0.27508952 2.12898134 -1.77523938 2.69551222 -4.1875 4.125 C-5.1775 3.465 -6.1675 2.805 -7.1875 2.125 C-4.09861478 0.06574319 -3.47814073 -0.1140374 0 0 Z " fill="#7C94A8" transform="translate(294.1875,66.875)"/>
<path d="M0 0 C1.8871875 0.061875 1.8871875 0.061875 3.8125 0.125 C4.1425 0.785 4.4725 1.445 4.8125 2.125 C4.07 2.08375 3.3275 2.0425 2.5625 2 C-0.27508952 2.12898134 -1.77523938 2.69551222 -4.1875 4.125 C-5.1775 3.465 -6.1675 2.805 -7.1875 2.125 C-4.09861478 0.06574319 -3.47814073 -0.1140374 0 0 Z " fill="#7790A5" transform="translate(207.1875,66.875)"/>
<path d="M0 0 C2.64 0 5.28 0 8 0 C7.34 1.32 6.68 2.64 6 4 C4.68 4 3.36 4 2 4 C2 3.34 2 2.68 2 2 C1.34 2 0.68 2 0 2 C0 1.34 0 0.68 0 0 Z " fill="#E6E8EB" transform="translate(40,68)"/>
<path d="M0 0 C1.65 0 3.3 0 5 0 C4.67 1.65 4.34 3.3 4 5 C2.68 4.67 1.36 4.34 0 4 C0 2.68 0 1.36 0 0 Z " fill="#415572" transform="translate(28,63)"/>
<path d="M0 0 C2.02045442 0.60183749 4.02111039 1.27306096 6 2 C6.33 2.66 6.66 3.32 7 4 C5.68 3.67 4.36 3.34 3 3 C2.67 3.66 2.34 4.32 2 5 C1.01 5.495 1.01 5.495 0 6 C0 4.02 0 2.04 0 0 Z " fill="#F9EBE0" transform="translate(286,111)"/>
<path d="M0 0 C0.99 0.33 1.98 0.66 3 1 C3 3.64 3 6.28 3 9 C2.34 9 1.68 9 1 9 C0.67 6.03 0.34 3.06 0 0 Z " fill="#DC8E4A" transform="translate(261,108)"/>
<path d="M0 0 C0.99 0.33 1.98 0.66 3 1 C3 3.64 3 6.28 3 9 C2.34 9 1.68 9 1 9 C0.67 6.03 0.34 3.06 0 0 Z " fill="#DC8E4A" transform="translate(155,108)"/>
<path d="M0 0 C3 3 3 3 3.1875 6.1875 C3.0946875 7.5796875 3.0946875 7.5796875 3 9 C2.01 9.33 1.02 9.66 0 10 C0 6.7 0 3.4 0 0 Z " fill="#C5CFD8" transform="translate(165,70)"/>
<path d="M0 0 C0.33 0.99 0.66 1.98 1 3 C4.3 2.67 7.6 2.34 11 2 C6.60171741 4.1991413 3.81449408 4.51855059 -1 5 C-0.67 3.35 -0.34 1.7 0 0 Z " fill="#465873" transform="translate(42,64)"/>
<path d="M0 0 C3.465 1.485 3.465 1.485 7 3 C5.625 4.5 5.625 4.5 4 6 C3.34 6 2.68 6 2 6 C0 3 0 3 0 0 Z " fill="#174367" transform="translate(132,74)"/>
<path d="M0 0 C1.98 0.495 1.98 0.495 4 1 C4 2.32 4 3.64 4 5 C3.34 5 2.68 5 2 5 C2 5.66 2 6.32 2 7 C1.34 7 0.68 7 0 7 C-0.33 6.01 -0.66 5.02 -1 4 C-0.01 4 0.98 4 2 4 C2 3.34 2 2.68 2 2 C1.34 2 0.68 2 0 2 C0 1.34 0 0.68 0 0 Z " fill="#4B5D78" transform="translate(56,28)"/>
<path d="M0 0 C0 0.33 0 0.66 0 1 C-3.63 1.66 -7.26 2.32 -11 3 C-6.77319309 -1.22680691 -5.69611211 -1.11445672 0 0 Z " fill="#4E5E77" transform="translate(97,10)"/>
<path d="M0 0 C0.33 0.66 0.66 1.32 1 2 C1.66 2 2.32 2 3 2 C3 1.34 3 0.68 3 0 C3.66 0 4.32 0 5 0 C4.67 1.32 4.34 2.64 4 4 C2.35 4 0.7 4 -1 4 C-0.67 2.68 -0.34 1.36 0 0 Z " fill="#152E51" transform="translate(55,33)"/>
</svg>
